#!OML:ASF H:\Dans Jumps\Project 1\Capture day 1\Session 1\subject.ASF
:FULLY-SPECIFIED
:DEGREES
436
root 0.541722 16.9572 -2.64277 8.35028 0.131505 -1.90989
lowerback 4.61428 -0.889602 -0.685641
upperback 6.14131 -1.25931 2.27989
thorax 3.82237 -0.714531 2.75539
lowerneck -12.8512 0.77109 -0.775758
upperneck 33.2545 1.70146 -1.15755
head 13.3183 0.483956 -0.0671585
rclavicle 6.95746e-016 5.36719e-015
rhumerus -17.6271 -13.9883 -83.7704
rradius 23.2047
rwrist 32.4517
rhand -21.3053 -25.2474
rfingers 7.12502
rthumb 5.07955 -55.1665
lclavicle 6.95746e-016 5.36719e-015
lhumerus -13.2998 -8.4702 91.4379
lradius 18.3553
lwrist 7.03938
lhand -27.6674 -6.34223
lfingers 7.12502
lthumb -1.06466 23.6349
rfemur -28.7955 -4.16017 20.6783
rtibia 44.3345
rfoot -20.3943 -9.11612
rtoes 5.19279
lfemur -30.7308 7.64652 -17.6408
ltibia 42.4655
lfoot -19.2945 -0.554983
ltoes -0.667842
437
root 0.540753 16.9578 -2.64129 8.35147 0.139996 -1.90379
lowerback 4.61648 -0.890679 -0.683603
upperback 6.14107 -1.26066 2.27966
thorax 3.8209 -0.715093 2.75405
lowerneck -12.8534 0.766275 -0.775589
upperneck 33.2799 1.69677 -1.16294
head 13.3298 0.480984 -0.0700169
rclavicle -6.36111e-015 -1.03368e-014
rhumerus -17.6152 -13.9783 -83.7769
rradius 23.2339
rwrist 32.4334
rhand -21.3063 -25.2529
rfingers 7.12502
rthumb 5.07857 -55.1721
lclavicle -6.36111e-015 -1.03368e-014
lhumerus -13.3196 -8.48014 91.4374
lradius 18.3623
lwrist 7.04571
lhand -27.6768 -6.34858
lfingers 7.12502
lthumb -1.07375 23.6285
rfemur -28.7846 -4.15454 20.6742
rtibia 44.3261
rfoot -20.3941 -9.13453
rtoes 5.18107
lfemur -30.7195 7.64918 -17.6442
ltibia 42.4506
lfoot -19.2924 -0.571985
ltoes -0.650003
438
root 0.539723 16.9582 -2.63987 8.35383 0.147292 -1.90031
lowerback 4.6193 -0.8908 -0.679616
upperback 6.14085 -1.26074 2.28077
thorax 3.81902 -0.71497 2.75301
lowerneck -12.8702 0.764142 -0.7617
upperneck 33.3145 1.69678 -1.18049
head 13.3488 0.480004 -0.0793086
rclavicle -5.66536e-015 -1.78906e-015
rhumerus -17.6024 -13.9608 -83.7838
rradius 23.2608
rwrist 32.409
rhand -21.3065 -25.2619
rfingers 7.12502
rthumb 5.07837 -55.181
lclavicle -5.66536e-015 -1.78906e-015
lhumerus -13.3423 -8.49465 91.4379
lradius 18.3737
lwrist 7.0529
lhand -27.6836 -6.36643
lfingers 7.12502
lthumb -1.08028 23.6106
rfemur -28.7761 -4.14541 20.6732
rtibia 44.3184
rfoot -20.3936 -9.15666
rtoes 5.16512
lfemur -30.7101 7.65608 -17.645
ltibia 42.4355
lfoot -19.2895 -0.592038
ltoes -0.629397
439
root 0.538671 16.9588 -2.63834 8.35629 0.152285 -1.89342
lowerback 4.62154 -0.88949 -0.678696
upperback 6.14096 -1.25896 2.28093
thorax 3.81777 -0.714028 2.75268
lowerneck -12.891 0.762734 -0.744451
upperneck 33.3508 1.69786 -1.20042
head 13.3695 0.479566 -0.0899585
rclavicle 3.27995e-015 -2.62396e-014
rhumerus -17.5876 -13.9417 -83.7907
rradius 23.2826
rwrist 32.3855
rhand -21.2984 -25.2779
rfingers 7.12502
rthumb 5.08626 -55.1968
lclavicle 3.27995e-015 -2.62396e-014
lhumerus -13.368 -8.51965 91.4395
lradius 18.3902
lwrist 7.0686
lhand -27.6854 -6.37723
lfingers 7.12502
lthumb -1.08204 23.5998
rfemur -28.7675 -4.13512 20.6685
rtibia 44.311
rfoot -20.3934 -9.18008
rtoes 5.14328
lfemur -30.6987 7.66436 -17.6496
ltibia 42.4192
lfoot -19.2872 -0.610923
ltoes -0.607865
440
root 0.537646 16.9594 -2.63668 8.36066 0.157568 -1.88142
lowerback 4.62035 -0.888323 -0.682414
upperback 6.14096 -1.25745 2.2806
thorax 3.81843 -0.713421 2.75439
lowerneck -12.9263 0.763495 -0.716928
upperneck 33.3993 1.7032 -1.23048
head 13.399 0.480734 -0.105731
rclavicle -1.19271e-014 9.54166e-015
rhumerus -17.5721 -13.9208 -83.7963
rradius 23.3006
rwrist 32.3649
rhand -21.2954 -25.2925
rfingers 7.12502
rthumb 5.08916 -55.2114
lclavicle -1.19271e-014 9.54166e-015
lhumerus -13.3961 -8.54842 91.4426
lradius 18.4096
lwrist 7.08508
lhand -27.6842 -6.38954
lfingers 7.12502
lthumb -1.08095 23.5875
rfemur -28.7604 -4.12804 20.6582
rtibia 44.3039
rfoot -20.3953 -9.20231
rtoes 5.11579
lfemur -30.6872 7.67231 -17.6604
ltibia 42.4007
lfoot -19.2855 -0.629056
ltoes -0.588531
441
root 0.536671 16.9601 -2.63492 8.36521 0.163365 -1.86607
lowerback 4.61686 -0.887108 -0.687268
upperback 6.14155 -1.2559 2.279
thorax 3.82101 -0.712821 2.75539
lowerneck -12.9506 0.765216 -0.694271
upperneck 33.4389 1.70936 -1.25588
head 13.4222 0.482429 -0.118739
rclavicle -3.27995e-015 2.00773e-014
rhumerus -17.5545 -13.907 -83.8007
rradius 23.311
rwrist 32.3559
rhand -21.2994 -25.3021
rfingers 7.12502
rthumb 5.08524 -55.221
lclavicle -3.27995e-015 2.00773e-014
lhumerus -13.4256 -8.58067 91.4461
lradius 18.4313
lwrist 7.10049
lhand -27.6712 -6.38815
lfingers 7.12502
lthumb -1.06834 23.5889
rfemur -28.7525 -4.1242 20.6441
rtibia 44.2965
rfoot -20.3993 -9.22457
rtoes 5.07692
lfemur -30.6739 7.67839 -17.6748
ltibia 42.3794
lfoot -19.283 -0.64779
ltoes -0.560105
442
root 0.5357 16.961 -2.63311 8.37191 0.170483 -1.84461
lowerback 4.60977 -0.886525 -0.696707
upperback 6.14135 -1.25522 2.27551
thorax 3.82488 -0.712804 2.75695
lowerneck -12.9615 0.766821 -0.681044
upperneck 33.4698 1.714 -1.27076
head 13.4383 0.483828 -0.126233
rclavicle -9.83984e-015 1.5704e-014
rhumerus -17.5375 -13.8978 -83.8049
rradius 23.3167
rwrist 32.3517
rhand -21.3078 -25.3069
rfingers 7.12502
rthumb 5.07715 -55.2261
lclavicle -9.83984e-015 1.5704e-014
lhumerus -13.4552 -8.61276 91.4489
lradius 18.4491
lwrist 7.11022
lhand -27.6569 -6.38351
lfingers 7.12502
lthumb -1.05458 23.5936
rfemur -28.7462 -4.12362 20.6233
rtibia 44.2891
rfoot -20.4041 -9.24667
rtoes 5.02394
lfemur -30.6616 7.6819 -17.6964
ltibia 42.3562
lfoot -19.2801 -0.665905
ltoes -0.53342
443
root 0.534735 16.962 -2.63135 8.37987 0.180385 -1.82313
lowerback 4.60184 -0.887504 -0.705465
upperback 6.13946 -1.2566 2.27296
thorax 3.82756 -0.713787 2.75912
lowerneck -12.9373 0.766625 -0.696676
upperneck 33.474 1.71362 -1.25842
head 13.4345 0.483479 -0.118783
rclavicle 1.14301e-014 9.14409e-015
rhumerus -17.5223 -13.8883 -83.8073
rradius 23.3192
rwrist 32.3503
rhand -21.3139 -25.3101
rfingers 7.12502
rthumb 5.07127 -55.2294
lclavicle 1.14301e-014 9.14409e-015
lhumerus -13.4864 -8.64267 91.4528
lradius 18.4638
lwrist 7.11774
lhand -27.6401 -6.3619
lfingers 7.12502
lthumb -1.03832 23.6153
rfemur -28.7405 -4.12541 20.6025
rtibia 44.281
rfoot -20.4083 -9.26876
rtoes 4.97219
lfemur -30.6513 7.68285 -17.718
ltibia 42.3325
lfoot -19.2761 -0.684259
ltoes -0.513954
444
root 0.53369 16.9629 -2.62972 8.38794 0.192785 -1.80375
lowerback 4.5955 -0.888817 -0.711124
upperback 6.13674 -1.25835 2.27069
thorax 3.82845 -0.714808 2.75987
lowerneck -12.913 0.76705 -0.707169
upperneck 33.4816 1.71398 -1.24958
head 13.4323 0.483602 -0.113511
rclavicle -8.94531e-015 -1.78906e-015
rhumerus -17.5101 -13.8807 -83.8093
rradius 23.3203
rwrist 32.3472
rhand -21.3193 -25.3128
rfingers 7.12502
rthumb 5.06606 -55.2322
lclavicle -8.94531e-015 -1.78906e-015
lhumerus -13.5179 -8.66525 91.4558
lradius 18.4729
lwrist 7.10997
lhand -27.6255 -6.32699
lfingers 7.12502
lthumb -1.02426 23.6503
rfemur -28.7353 -4.12565 20.5843
rtibia 44.2732
rfoot -20.412 -9.29422
rtoes 4.91722
lfemur -30.6433 7.68267 -17.7368
ltibia 42.3104
lfoot -19.2719 -0.704097
ltoes -0.494411
445
root 0.532602 16.9638 -2.62817 8.39605 0.207771 -1.78807
lowerback 4.58998 -0.890547 -0.71285
upperback 6.1343 -1.26063 2.27012
thorax 3.82913 -0.715969 2.76019
lowerneck -12.8883 0.766334 -0.721558
upperneck 33.4893 1.71237 -1.23673
head 13.4299 0.482916 -0.106269
rclavicle 1.18277e-014 1.05356e-014
rhumerus -17.5005 -13.8709 -83.8106
rradius 23.3256
rwrist 32.3369
rhand -21.3215 -25.3121
rfingers 7.12502
rthumb 5.06394 -55.2316
lclavicle 1.18277e-014 1.05356e-014
lhumerus -13.5449 -8.68935 91.4596
lradius 18.4741
lwrist 7.1031
lhand -27.6125 -6.27167
lfingers 7.12502
lthumb -1.01164 23.7057
rfemur -28.73 -4.125 20.5703
rtibia 44.2652
rfoot -20.4142 -9.32208
rtoes 4.86592
lfemur -30.6376 7.68131 -17.7514
ltibia 42.2909
lfoot -19.2681 -0.723576
ltoes -0.485975
446
root 0.531441 16.9644 -2.62679 8.40364 0.225364 -1.7774
lowerback 4.58706 -0.892733 -0.71006
upperback 6.13236 -1.26349 2.27196
thorax 3.82887 -0.71729 2.76052
lowerneck -12.8709 0.7665 -0.729999
upperneck 33.5025 1.71278 -1.23018
head 13.4317 0.482931 -0.102227
rclavicle -1.20265e-014 1.78906e-015
rhumerus -17.4913 -13.86 -83.8107
rradius 23.3313
rwrist 32.3202
rhand -21.3243 -25.3109
rfingers 7.12502
rthumb 5.06121 -55.2304
lclavicle -1.20265e-014 1.78906e-015
lhumerus -13.5689 -8.69902 91.4633
lradius 18.47
lwrist 7.07866
lhand -27.5984 -6.21234
lfingers 7.12502
lthumb -0.998081 23.7651
rfemur -28.7252 -4.12274 20.5621
rtibia 44.258
rfoot -20.4153 -9.35274
rtoes 4.81767
lfemur -30.6353 7.68138 -17.7604
ltibia 42.275
lfoot -19.265 -0.744234
ltoes -0.485234
447
root 0.530242 16.9649 -2.62543 8.40939 0.244879 -1.7704
lowerback 4.58788 -0.894826 -0.703761
upperback 6.13061 -1.26619 2.27566
thorax 3.82667 -0.718419 2.76087
lowerneck -12.8629 0.767032 -0.729898
upperneck 33.5225 1.71518 -1.23389
head 13.4387 0.483418 -0.103403
rclavicle 1.10325e-014 -1.74931e-014
rhumerus -17.484 -13.8517 -83.8089
rradius 23.3372
rwrist 32.3026
rhand -21.3243 -25.3123
rfingers 7.12502
rthumb 5.06125 -55.2318
lclavicle 1.10325e-014 -1.74931e-014
lhumerus -13.5898 -8.70182 91.468
lradius 18.46
lwrist 7.04923
lhand -27.5868 -6.15441
lfingers 7.12502
lthumb -0.986807 23.8231
rfemur -28.7189 -4.12026 20.5582
rtibia 44.2511
rfoot -20.4158 -9.38493
rtoes 4.77486
lfemur -30.6333 7.68198 -17.765
ltibia 42.2621
lfoot -19.2635 -0.765848
ltoes -0.488231
448
root 0.529038 16.9652 -2.62408 8.41402 0.267592 -1.76506
lowerback 4.59132 -0.89757 -0.695974
upperback 6.1294 -1.26976 2.28114
thorax 3.82363 -0.719965 2.76229
lowerneck -12.8656 0.766975 -0.726754
upperneck 33.5483 1.71779 -1.24229
head 13.4507 0.483648 -0.106892
rclavicle 8.15017e-015 -1.55052e-014
rhumerus -17.4768 -13.843 -83.8047
rradius 23.3417
rwrist 32.2841
rhand -21.3242 -25.313
rfingers 7.12502
rthumb 5.06129 -55.2325
lclavicle 8.15017e-015 -1.55052e-014
lhumerus -13.6064 -8.6962 91.4731
lradius 18.4447
lwrist 7.01272
lhand -27.5784 -6.11318
lfingers 7.12502
lthumb -0.97874 23.8643
rfemur -28.712 -4.12012 20.5565
rtibia 44.2457
rfoot -20.4153 -9.41973
rtoes 4.74145
lfemur -30.632 7.68163 -17.7675
ltibia 42.2523
lfoot -19.2644 -0.788386
ltoes -0.494786
